<mxfile host="65bd71144e">
    <diagram id="eQo6rUr3XkOP_zNuJ6AL" name="Page-1">
        <mxGraphModel dx="624" dy="347" grid="1" gridSize="10" guides="1" tooltips="1" connect="1" arrows="1" fold="1" page="1" pageScale="1" pageWidth="827" pageHeight="1169" math="0" shadow="0">
            <root>
                <mxCell id="0"/>
                <mxCell id="1" parent="0"/>
                <mxCell id="2" value="" style="ellipse;whiteSpace=wrap;html=1;" vertex="1" parent="1">
                    <mxGeometry x="240" y="100" width="60" height="60" as="geometry"/>
                </mxCell>
                <mxCell id="3" value="" style="ellipse;whiteSpace=wrap;html=1;" vertex="1" parent="1">
                    <mxGeometry x="110" y="180" width="60" height="70" as="geometry"/>
                </mxCell>
                <mxCell id="4" value="" style="ellipse;whiteSpace=wrap;html=1;" vertex="1" parent="1">
                    <mxGeometry x="360" y="170" width="80" height="80" as="geometry"/>
                </mxCell>
                <mxCell id="5" value="" style="ellipse;whiteSpace=wrap;html=1;" vertex="1" parent="1">
                    <mxGeometry x="20" y="320" width="80" height="80" as="geometry"/>
                </mxCell>
                <mxCell id="6" value="" style="ellipse;whiteSpace=wrap;html=1;" vertex="1" parent="1">
                    <mxGeometry x="210" y="320" width="80" height="80" as="geometry"/>
                </mxCell>
                <mxCell id="7" value="" style="shape=stencil(lVjLctswDPwaXzEgQYLkOU3/IzNxGk/TOOOkr78vXA9VEZLW7k1RsCYILICFdnL3/vzwtt9Ffv84Hb/ufx4eP5538mkX4+H1eX86fNjTTu53cvd0PO2/nI7fXx8vf789nC3PT9+OP86/8OuCa5VSPaMi/768KaT574vPF/uXw+vcPpHIYB+YYgEAJtYRIBR5G1AzRXeCklYACMR5BDRqsg0ohVIbAFGIESBRGE+ISgxcKuYSj4BKLW4DtPoTJJCCKGkmGU+QRAzyoJFiGgEKT8iN4sgMaRQCACjFMABSoArCmiNVB8g9lauA1KiMLiWjL7h0UmplANiZnAAgUYojIJOiE5ja6JIGyFYpVMfEqVICUbK8lpGt2kgAl4w5Zby08Rdd2kq+jSVaKqRGtCYwcqlOYVgHBMrjCVVIdBsQygIwvVkHWJScS9YEGgAYN8dMt0gJ0NsKeKxQa4UNeJSoOnsrH+CQUGNvX8HvW/FUb49yEFbsM2BF6C1xsq+Ugf9MMtK0ld7IN+xd124Zko4X/ghVUJnsOWr5jaBseJFf7gzZiI8rSyMc6nbR9y6zFxB/8X3C7BOIjxWAev8Z+J8pu/sGCmhEUWAfT8QH9ULB6gUJBfXzqWkfohv++/q1DgH4nyks+IzqK3kZYvWisH7j6E9ghheIflzaAQVMv0Cx+QugBsSUiw9QgQXgA2Qph7/vNI4lOAFCc5d9MwKh+3L3dkbQCOPjVJ0VANIr/2uffYM2paogPkYv1yDwfW0i6Zgwm6oRdWjtBTXN7dybxjqgdRE6AUK/1DpFI7WRo4W7KlwHaA/hJFYmZbsOaJ1jE0CgUpbYSTABcJRkGiuTpCtdO68Dqk+0iUbUqU3m8pjpVGFYk/hZfBa+qBdpX2hm0hrVQmZPDdOdGXVT8e30vE+gE0qfLrONBYXV0sTjpSNuwEaEMJ5g7MpgwtpO5CruLFTRiKpdQUyAADVFmbaH2aqJhpoVZB7rwYoWcam0xfYrve+vdxnpTXe2kDPSsdXPEbzLWpdWl7feFNbt1W91DHWgTSVRZ4/Gptm7Wrhiv/jCccWf6jc6hhugTe3kUkyC4mNTXlw8A/K/+ftGvNjwYjBbRwWUWx6Qeh3deIHcpe2NAdKuTG5MQOlK6cYEX/mEddXeHv59L3s6vLxcPrfN/++/r9mry7c5uf8D);lineShape=1;strokeColor=default;" vertex="1" parent="1">
                    <mxGeometry x="162.43010818714436" y="144.21809992078607" width="83.88957792168708" height="49.72956854551984" as="geometry"/>
                </mxCell>
                <mxCell id="8" value="" style="shape=stencil(lVfZbttADPwavRK75J7PafofAeLURl07cJwef1+qxjomZU2RN3k9lHgMOdxJHt62T6+bicPb+XT8vvm1ez5vJ/kyMe8O281pd9anSR4neXg5njbfTsf3w/Pl9+vTjJyffhx/zm/4fbHrjZrMVhz+XE6EuP07+HrB73eHW7xQTAZfKOR1fCvUq8F3KmEdXzuFaPAxUwAGRd/HxoCZMoigBMo2AgnUgUFmqvYL0qjGdYOUqXVjoCe5AoNAHIxBjiS8biCZuFiDQhVkaQ7RprVE6qBuXIcDV4NCrQCDRGJjqBoD+kKkmq1BJgF1iEoNm1YlCwOXonLPVropNYBLUajboFulIsCARxKv7I4UQAzVe6T910GhNefN4vtg732uUi4e3xFVKfIC30HRfCsovqKaUQ4ej8aL9mb3+cmgxMFTolfYB4p3+de+AZ0ZKLn65lGRlXi5eXwEBGJKzp8Eh5dQY48XEO9iTsx4yLcSPR41gGY7+XgZ8E2rKR6P+Nb8JO0F5r8NNt7woUF/2OWzUQF8q8ROzToJwKs4LvqlgfynIY5X9QsByp/K8cIhTNDlQEmwIVv2CUIBLJRM8cj/a3Q3BUMDNCwIXUYGVvDd4TMs2GfxaSExfZysEKLbBmgZDqAYqNoOaAEuH6phYr9Q6xjCayrpUloF9ozqMLtdog+W3B9y7KdKwUqvWUo2aF3aEtqHwpgi130oD2VYW6DcWprwXpqiXzOT4E5uJNYlKVCKdYNzraOrMlqt5yRa7jHOUk2+mXV/ycBA1yWXVlVLoAbK/WK5x4Pu9y8T2ctBGOS9jy9DTD/wEfg/i3tz+ABKoLMnFY8HpNDZtvQH451c6jgDLJ2XpezwaDtQfPF4mH+dVU5uBqVWhtFiXEc4veYPeEKg9WDeJl0PjLZbw8uCcChBn73t/hevDx9X65fdfn+5md/+76/ienS5xsvjXw==);lineShape=1;strokeColor=default;" vertex="1" parent="1">
                    <mxGeometry x="69.95376698722953" y="240.55979153065994" width="51.68366218252129" height="80.31838135522787" as="geometry"/>
                </mxCell>
                <mxCell id="9" value="" style="shape=stencil(lVjJbttADP0aXwnOcDae0/Q/AsRpjKZx4CRd/r4UjJE9lPSM3GSLT9wel5md3L0/P7ztd5HfP07Hn/s/h8eP551828V4eH3enw4f9rST+53cPR1P+x+n4+fr4/n328MkOT39Ov6evvD3jIskaQJF/nf+gyme//h+Fn85vF6JNyo6iCfKcVs8ZNI8yCuVsC0fxZtjX2BgjzBJGwDmgAANUimEEWAa6jYgRVKnQUkQoPUIdoAIpbYNyJGaA1SoIRdqMmYhUOZtQOHu4gzIJAUAImWX59aNXAckKmOic+hGrgMq5TICMjUFAPXUy0oRAGogGaNkXkVAjSo+rOZVzgBQiEdqlEIC8lAbpTHTpVEA9dOCB1TudFwHJGIeAUIRaShUHCBDp5tSGwuoKmVgkgrxCDAjEfk0eWqYkQ34oNXTWwPsGqq9R8yARBX5YE6PUdJMBfgQmH0i1CINinpSMfLb3CqA3wZIDmDdGYWp+T4zxQEloi18UNgFlom4isM6olCQhQrQNyzusrBJAF910ZmmMCGTEsW8SATKXKLgAKXr3ALISPCJTSiuiZrTYHxFJuVekleAgPOQnElCFeWhUmIPgFFqi5qTvhxs8Tuw9yEjk7QbcBVWSA0ldQDr36iCDOCiVG9pKA7QbmlwI2UKA6JGW6mHCqbcZPFCAxopEzUWbUORD9n3bwPkG/ROPkoNV9wXAXHRZlLfDjannNPAnfBbc7SOJdoyVQQQP0dt2KMZtLILGDXQAmRcGk2qeI7a6zjWQ01wPZk2JmdSIEULUPB7pa11yCR77XqrLY5oxbLXcayHMjfPdUDuUZ8BFmhQQPY9GaOU57VuHRB8prN1PgTgvr3MAKaGThC1s39e1ys0KSdSd4IQOLJsm3d5ENxmko3AUYPYWRABFvQWixvYTux7jkuxwsFuh9fqABHuGjH4mg5YQzBqjBqCHTmAD9W3pdorcFWc+0ieQ0QMGgD7iEa4vXE/KFzE0dneSFqceAAMWuzDFlwQGROPThytqtyH5OUaQ2Eg3dGQO1s3xB3TGE597kS/iKMRHnzXnX3fEC/eVbRhRx93htcdX7wPuiluD5erp6fDy8v55ur6vb+qsr/O11xy/x8=);lineShape=1;strokeColor=default;" vertex="1" parent="1">
                    <mxGeometry x="157.09685756182103" y="240.59522411114358" width="92.11327021892441" height="84.97178813220523" as="geometry"/>
                </mxCell>
                <mxCell id="10" value="" style="shape=stencil(lVdJcttADHwNryjMjjk7zj9cZTlSRZFcspzl9wHDUBZAsVW+cUHPAA2gBzOkh7ft0+tmiPx2Ph2/b37tns/bIX0ZYtwdtpvT7qxPQ3oc0sPL8bT5djq+H56n99en0XJ8+nH8Oa7we8IFimUERf4zfWDi/O/D18l8vztcmReSbswjNA+JIhv7SuPbmn1MxNHYh0hS1wGpElfrkAKAR7lTtYCUKQJADdQtIBdiWQe0SLkZQMnUAgB0isGSFKgBlyRRdYBKAlySRslmWZ2sgNbOVGzQTSiDxPVEJRuAZAoNACplG4P0ubZuAzRxNgZdggGtCpDqAQXv0MUCGsU7ANsNXYgTdmkBQJkeg3aATgkDHK36paE89LmYrwAdBX3x+BqAdpBbLqHECYXiAahFNU2uRXWJiqq1ze1ylWlYfLpD8ID/Tq7FwI6lOsvCGiBa1eiFOopBqCwABfW0LGIouKe7PxvGHTDAqYYCkHqP/cCepQSEbCy14vPAIA+B9Txjj2h3tki+mArWmeai7hRw1GXREBUVk663UIGOGkJILE1XPKxWU/RbCC6/mDwAVtOnAYWCayE8C+jvaGnScy+gY1G11GZOAhWg36LTizsWy1yQtwGRmqW1MWUA0GM22RhqmeXzNkBHBUtrESg0dTHxZYHDg/7uVmiSCjSopXSRlctMVmHL6ciWbaZDpQ520KGw2aYOPPO2Mra6jlOZARyxb58MdY/9OJbncWvF3KU4zzPsinm0bOr0B33n7swDYIbnGepjoL+zOjvzAJlhp0NUQCGwP/gDnLSVSOs7QxllL3GKh763xc0IEBk8M1hwP3nvumuuDx9XvJfdfj/dEK//+yuhfpquk+nxLw==);lineShape=1;strokeColor=default;" vertex="1" parent="1">
                    <mxGeometry x="298.7679880542711" y="147.26385836831093" width="134.0278234771455" height="62.0700068940065" as="geometry"/>
                </mxCell>
                <mxCell id="11" value="" style="shape=stencil(fZbdcgIhDIWfZm8zQAg/17Z9j85U606tdqz9e/tmZ0c0uJ47xP0I5JwEBl59bp8/1kNwn6fj4W39M76ctgM/DCGM++36OJ50NPDjwKvN4bh+PR6+9i/z74/n6ctp9H74nlb4nbmSKZeJCu5vngmZ6jzzNAO7cX8FVKEsBuBKrgKg9oAE8gkCbLeUhEoEQKSUDZDLeWYRKIl8MEDRmHwfyBrBG6Amyu4+kDxxMoB3jhwgYu7TVAsVkFcWCs4CTBEoF4RctKeOxHIf8IXYpikHikAIf+MNUW94AGSSaoAoFIE3AlOyeWU+p2E5S9yfQZcQILVuQOwZdJNoS9Ls3wA5u2XZTIHECqeJ9kDpSaauRiNVcAY1QhdBzeLBli5WazpkSsBLV25uRaqWRyFawTQzRRIQYirJzq5atkBqLfouwqUxLBepthWb10vrWZY6UOAeyKCCtDV625mm9gmUC4Wc3VLJMMIE1BsA2FW9JraVlQB7n3c9oMKhCLEvIM1zBPZ25/umNQ1tVEC2G+fFCC8g398O2hNQuQlVu752DBfA+q0ptnqO5JFmeuIuo9DY7KjY71UxdJV4EntifPWorW++R/dC4t7V3DlIB5cHx2bc7eb3yvX//QNFp+bHDT/+Aw==);lineShape=1;strokeColor=default;" vertex="1" parent="1">
                    <mxGeometry x="142.2143048366164" y="153.21904719973014" width="4.672539772115329" height="4.665236216357528" as="geometry"/>
                </mxCell>
                <mxCell id="12" value="" style="shape=stencil(fZbdcgIhDIWfZm8zQAg/17Z9j85U606tdqz9e/tmZ0c0uJ47xP0I5JwEBl59bp8/1kNwn6fj4W39M76ctgM/DCGM++36OJ50NPDjwKvN4bh+PR6+9i/z74/n6ctp9H74nlb4nbmSKZeJCu5vngmZ6jzzNAO7cX8FVKEsBuBKrgKg9oAE8gkCbLeUhEoEQKSUDZDLeWYRKIl8MEDRmHwfyBrBG6Amyu4+kDxxMoB3jhwgYu7TVAsVkFcWCs4CTBEoF4RctKeOxHIf8IXYpikHikAIf+MNUW94AGSSaoAoFIE3AlOyeWU+p2E5S9yfQZcQILVuQOwZdJNoS9Ls3wA5u2XZTIHECqeJ9kDpSaauRiNVcAY1QhdBzeLBli5WazpkSsBLV25uRaqWRyFawTQzRRIQYirJzq5atkBqLfouwqUxLBepthWb10vrWZY6UOAeyKCCtDV625mm9gmUC4Wc3VLJMMIE1BsA2FW9JraVlQB7n3c9oMKhCLEvIM1zBPZ25/umNQ1tVEC2G+fFCC8g398O2hNQuQlVu752DBfA+q0ptnqO5JFmeuIuo9DY7KjY71UxdJV4EntifPWorW++R/dC4t7V3DlIB5cHx2bc7eb3yvX//QNFp+bHDT/+Aw==);lineShape=1;strokeColor=default;" vertex="1" parent="1">
                    <mxGeometry x="118.88096133075692" y="177.3857036938707" width="4.672539772115556" height="4.665236216357698" as="geometry"/>
                </mxCell>
            </root>
        </mxGraphModel>
    </diagram>
</mxfile>